<?xml version="1.0" encoding="utf-8"?>
<!-- Generator: Adobe Illustrator 26.5.2, SVG Export Plug-In . SVG Version: 6.00 Build 0)  -->
<svg version="1.1" id="레이어_1" xmlns="http://www.w3.org/2000/svg" xmlns:xlink="http://www.w3.org/1999/xlink" x="0px"
	 y="0px" viewBox="0 0 247.8 62.7" style="enable-background:new 0 0 247.8 62.7;" xml:space="preserve">
<style type="text/css">
	.st0{fill:#FF5700;}
</style>
<g>
	<path d="M0,55.7h5.9l3-36.8h-6v-5.1h13.4l12.1,28.7c0.7,1.9,1.1,3.4,1.1,3.4h0.1c0,0,0.3-1.5,1.1-3.4l12.1-28.7H56v5.1h-6l3,36.8
		h5.9v5.2H40.7v-5.2h5.7l-2.1-28.2c-0.1-1.5,0.2-3.9,0.2-3.9h-0.2c0,0-0.5,2.3-1.1,3.6L32.4,52h-5.9L15.7,27.3
		c-0.5-1.3-1.1-3.6-1.1-3.6h-0.2c0,0,0.3,2.4,0.2,3.9l-2.1,28.2h5.7v5.2H0V55.7z"/>
	<path d="M112.1,55.7h5.9V18.9h-5.9v-5.1h20.4c3.3,0,6.1,0.1,8.7,1c4.9,1.7,8.2,5.8,8.2,12.2c0,6.8-3.7,11.7-9.8,13.2v0.1
		c0,0,1.2,0.7,2,2.2l6.7,11.6c0.7,1.3,1.6,1.5,3.3,1.5h1.4v5.2h-4c-4,0-4.9-0.7-6.5-3.5l-7.3-12.9c-1.2-2-2.1-2.6-4.9-2.6h-5.6v13.8
		h5.8v5.2h-18.4V55.7z M134.2,36.4c5.1,0,8.5-3.3,8.5-8.9c0-3.7-1.5-6.2-4.4-7.4c-1.5-0.6-3.5-0.9-5.8-0.9h-7.8v17.2H134.2z"/>
	<polygon points="157.4,55.7 163.2,55.7 163.2,18.9 157.4,18.9 157.4,13.8 191.5,13.8 191.5,24.7 185.7,24.7 185.7,19.2 169.9,19.2 
		169.9,34.4 186.6,34.4 186.6,39.9 169.9,39.9 169.9,55.4 186.8,55.4 186.8,49.8 192.6,49.8 192.6,60.9 157.4,60.9 	"/>
	<polygon points="198.2,55.7 204.1,55.7 204.1,18.9 198.2,18.9 198.2,13.8 216.7,13.8 216.7,18.9 210.8,18.9 210.8,34.6 235.2,34.6 
		235.2,18.9 229.3,18.9 229.3,13.8 247.8,13.8 247.8,18.9 241.9,18.9 241.9,55.7 247.8,55.7 247.8,60.9 229.3,60.9 229.3,55.7 
		235.2,55.7 235.2,40.1 210.8,40.1 210.8,55.7 216.7,55.7 216.7,60.9 198.2,60.9 	"/>
	<rect x="85.9" class="st0" width="6.3" height="6.3"/>
	<path class="st0" d="M92.1,17.5v-5.1h-6.3c-13.9,0-25.1,11.3-25.1,25.1c0,13.9,11.3,25.1,25.1,25.1h6.3v-3.1v-3.1h6.3v-3.6v-2.7
		h6.3v-6.3v-6.3v-6.3V25h-6.3v-3.1v-3.1h-6.3V17.5z"/>
	<rect x="98.4" y="12.4" class="st0" width="6.3" height="6.3"/>
	<rect x="104.7" y="6.2" class="st0" width="6.3" height="6.3"/>
</g>
</svg>
